<?xml version="1.0" encoding="UTF-8"?>
<svg id="Layer_1" xmlns="http://www.w3.org/2000/svg" version="1.1" viewBox="0 0 425.2 226.8">
  <!-- Generator: Adobe Illustrator 30.0.0, SVG Export Plug-In . SVG Version: 2.1.1 Build 123)  -->
  <defs>
    <style>
      .st0 {
        fill: #38424f;
      }
    </style>
  </defs>
  <path class="st0" d="M174.1,72.6h6.8v2h-8.9v-10.4h2.1v8.4h0ZM194.6,73.1c.4-.5.6-1.2.6-1.9v-7h-2.1v7.2c0,.5-.3.8-.8,1.1s-1.3.4-2.3.4-1.8-.1-2.3-.4c-.5-.2-.8-.6-.8-1.1v-7.2h-2.1v7c0,.7.2,1.4.6,1.9.4.5,1,1,1.8,1.2.8.3,1.7.4,2.8.4s1.9-.1,2.7-.4,1.4-.7,1.8-1.2h0ZM201.4,74.6l3.3-3.8,3.4,3.8h2.7l-4.7-5.3,4.4-5.1h-2.7l-3.1,3.5-3.1-3.5h-2.7l4.4,5-4.7,5.4h2.7ZM216.6,74.4c.8.3,1.7.4,2.8.4s1.9-.1,2.7-.4,1.4-.7,1.8-1.2.6-1.2.6-1.9v-7h-2.1v7.2c0,.5-.3.8-.8,1.1s-1.3.4-2.3.4-1.8-.1-2.3-.4c-.5-.2-.8-.6-.8-1.1v-7.2h-2.1v7c0,.7.2,1.4.6,1.9.4.5,1,1,1.8,1.2h0ZM231.1,74.6h-2.1v-10.4h6.1c.7,0,1.3.1,1.8.4s.9.6,1.2,1c.3.4.4,1,.4,1.6s-.2,1.4-.7,1.9c-.4.5-1.1.8-1.8,1l3.3,4.4h-2.5l-3.2-4.4h-2.4v4.4h0ZM231.1,68.2h3.9c.5,0,.8,0,1.1-.3.2-.2.4-.4.4-.8s-.1-.6-.4-.7c-.2-.2-.6-.2-1.1-.2h-3.9v2h0ZM246.3,74.6h2.1v-3.9l4.8-6.4h-2.5l-3.2,4.4-3.2-4.4h-2.5l4.8,6.4v3.9h0Z"/>
  <path class="st0" d="M229.1,148.9l-13.7-7.7c-1.7-1-3.8-1-5.5,0l-13.7,7.7c-1.8,1-2.9,2.9-2.9,4.9v15.5c0,1.5.6,3,1.7,4,.4.4.8.6,1.2.9l13.7,7.7c.9.5,1.8.7,2.8.7s1.9-.2,2.8-.7l13.7-7.7c.4-.2.8-.5,1.2-.9,1.1-1.1,1.7-2.5,1.7-4v-15.5c0-2-1.1-3.9-2.9-4.9h0ZM196,170.1c0-.3-.1-.6-.1-.9v-15.5c0-1.1.6-2.1,1.6-2.6l13.2-7.4c-3,11.4-8.6,19-13.8,25.3-.3.4-.6.7-.9,1.1h0ZM214.1,179.6c-.9.5-2,.5-3,0l-13.4-7.5c.4-.5.8-.9,1.1-1.4,5-6.1,10.5-13.6,13.7-24.4,3.2,10.9,8.7,18.3,13.7,24.4.4.5.8.9,1.1,1.4l-13.4,7.5h0ZM229.4,169.2c0,.3,0,.6-.1.9-.3-.4-.6-.7-.9-1.1-5.1-6.3-10.8-13.9-13.8-25.3l13.2,7.4c1,.5,1.6,1.6,1.6,2.6v15.5h0Z"/>
  <g>
    <g>
      <path class="st0" d="M142.3,108c0-.3,0-.7.2-1,.1-.4.3-.7.6-1,.2-.3.5-.5.9-.7.3-.2.7-.3,1.1-.3h7v-1.7h-7c-.4,0-.8,0-1.1-.3-.3-.2-.6-.4-.9-.7-.2-.3-.4-.6-.6-1-.1-.3-.2-.7-.2-.9v-9.2h13.1v-1.7h-17v8.5c0,1.8.6,3.2,1.7,4.4.7.7,1.5,1.3,2.4,1.8-.9.5-1.7,1.1-2.4,1.9-1.1,1.2-1.6,2.7-1.6,4.5v8.8h17.2v-1.7h-13.3v-9.6h0Z"/>
      <polygon class="st0" points="157.8 91.3 166.8 91.3 166.8 119.3 170.7 119.3 170.7 91.3 179.7 91.3 179.7 89.5 157.8 89.5 157.8 91.3"/>
      <rect class="st0" x="185" y="89.5" width="3.9" height="29.8"/>
      <polygon class="st0" points="128.2 103.2 115 103.2 115 89.5 111 89.5 111 119.3 115 119.3 115 104.9 128.2 104.9 128.2 119.3 132.2 119.3 132.2 89.5 128.2 89.5 128.2 103.2"/>
      <path class="st0" d="M46.5,108c0-.3,0-.7.2-1,.1-.4.3-.7.6-1,.2-.3.5-.5.9-.7.3-.2.7-.3,1.1-.3h7v-1.7h-7c-.4,0-.8,0-1.1-.3-.3-.2-.6-.4-.9-.7-.2-.3-.4-.6-.6-1-.1-.3-.2-.7-.2-.9v-9.2h13.1v-1.7h-17v8.5c0,1.8.6,3.2,1.7,4.4.7.7,1.5,1.3,2.4,1.8-.9.5-1.7,1.1-2.4,1.9-1.1,1.2-1.7,2.7-1.7,4.5v8.8h17.2v-1.7h-13.3v-9.6h0Z"/>
      <path class="st0" d="M78.9,104.3c-1.2-.8-2.6-1.6-4.1-2.2-1.4-.6-2.7-1.3-3.9-2-1.1-.7-2.1-1.4-2.9-2.2-.7-.8-1.1-1.7-1.1-2.8s.5-2.6,1.5-3.4c1.1-.8,2.4-1.2,3.9-1.2s3.2.5,4.8,1.4c1.6.9,3,2.3,4,4.3l1,2,.4-7.7h-.5c-2-.7-3.7-1.1-5.1-1.3-1.4-.3-2.7-.4-4-.4s-2.3.2-3.4.5c-1.1.3-2.1.8-2.9,1.5-.9.7-1.6,1.5-2.1,2.5-.5,1-.8,2.2-.8,3.4s.5,3.2,1.4,4.4c.8,1.1,1.9,2.1,3.2,2.9,1.2.8,2.6,1.5,4,2.2,1.4.6,2.7,1.2,3.9,1.9,1.2.7,2.1,1.4,2.9,2.2.7.7,1.1,1.6,1.1,2.7s-.2,1.4-.4,2c-.3.6-.7,1.1-1.3,1.5-.5.4-1.2.7-1.9.9-.8.2-1.6.3-2.4.3-1.8,0-3.6-.5-5.4-1.4-1.8-.9-3.3-2.5-4.5-4.5l-1.1-2v8.1h.5c1.6.4,3.1.7,4.6,1.1,1.6.4,3.3.6,5.1.6s2.3-.2,3.4-.5c1.2-.3,2.2-.8,3.2-1.4,1-.6,1.8-1.4,2.4-2.4.6-1,.9-2.2.9-3.5s-.4-3.3-1.3-4.5c-.8-1.2-1.9-2.2-3.2-3h0Z"/>
      <polygon class="st0" points="86 91.3 95 91.3 95 119.3 98.9 119.3 98.9 91.3 107.9 91.3 107.9 89.5 86 89.5 86 91.3"/>
      <path class="st0" d="M217.9,113.1c-1.2,1.2-2.7,2.3-4.2,3.2-1.3.7-3.3,1.4-5.1,1.4s-.3,0-.5,0c-1.4-.1-2.8-.5-3.9-1.1-.3-.2-.6-.4-.9-.6-1-.8-1.9-1.8-2.7-3.1-.9-1.3-1.6-2.8-2-4.4s-.7-3.2-.7-4.6.2-3.1.7-4.6c.4-1.5,1.1-2.9,2-4.1.9-1.2,1.9-2.2,3.1-2.9.3-.2.6-.3.9-.4.6-.2,1.2-.4,1.9-.5.4,0,.8,0,1.1,0,2,0,3.8.6,5.3,1.7,1.6,1.1,2.9,2.6,4.1,4.2l.2.3h1.3v-5l-.3-.2c-1.4-.8-2.9-1.5-4.4-2-1.6-.5-3.2-.7-4.9-.7h-.4c-2.1,0-4,.4-5.8,1.2-1.8.8-3.4,1.9-4.8,3.2s-2.4,3-3.2,4.8c-.8,1.8-1.2,3.8-1.2,5.8s.4,4.1,1.1,5.9c.7,1.8,1.7,3.4,3,4.8,1.3,1.4,2.9,2.5,4.6,3.3,1.9.8,3.6,1.2,5.7,1.2h.1c2,0,3.9-.4,5.7-1.2,2.2-.9,4.1-2.3,5.7-4.2l.4-.5-1.4-1.1-.4.4h0Z"/>
    </g>
    <g>
      <polygon class="st0" points="327.8 110.4 310.7 89.5 304.1 89.5 304.1 119.3 310.1 119.3 310.1 98 327.5 119.3 333.8 119.3 333.8 89.5 327.8 89.5 327.8 110.4"/>
      <rect class="st0" x="339" y="89.5" width="6" height="29.8"/>
      <path class="st0" d="M235.6,97.3c2-1.7,4.9-2.5,8.7-2.5s4.6.4,6.2,1.1c1.6.7,2.9,1.8,3.6,3.2l5.8-2c-1.3-2.6-3.4-4.6-6.1-6.1-2.7-1.4-5.9-2.2-9.5-2.2s-6.7.6-9.4,1.9-4.7,3.1-6.2,5.4c-1.4,2.3-2.2,5.1-2.2,8.2s.7,5.9,2.2,8.2c1.4,2.3,3.5,4.1,6.2,5.4s5.8,1.9,9.4,1.9,6.3-.6,9-1.9c2.6-1.3,4.7-3,6.1-5.3l-6.3-1.8c-.8.9-1.9,1.7-3.4,2.2-1.5.6-3.3.8-5.4.8-3.8,0-6.7-.8-8.7-2.5-2-1.7-3.1-4-3.1-7.1s1-5.4,3.1-7.1h0Z"/>
      <path class="st0" d="M372.5,113.1c-1.5.6-3.3.8-5.4.8-3.8,0-6.7-.8-8.7-2.5s-3-4-3-7.1,1-5.4,3-7.1c2-1.7,4.9-2.5,8.7-2.5s4.5.4,6.2,1.1c1.6.7,2.9,1.8,3.6,3.2l5.8-2c-1.3-2.6-3.4-4.6-6.1-6.1-2.7-1.4-5.9-2.2-9.5-2.2s-6.7.6-9.4,1.9c-2.7,1.2-4.7,3.1-6.2,5.4-1.4,2.3-2.2,5.1-2.2,8.2s.7,5.9,2.2,8.2c1.4,2.3,3.5,4.1,6.2,5.4s5.8,1.9,9.4,1.9,6.3-.6,9-1.9c2.6-1.3,4.7-3,6.1-5.3l-6.3-1.8c-.8.9-1.9,1.7-3.4,2.2h0Z"/>
      <rect class="st0" x="293" y="89.5" width="6" height="29.8"/>
      <polygon class="st0" points="270.2 89.5 264.2 89.5 264.2 119.3 289.8 119.3 289.8 113.5 270.2 113.5 270.2 89.5"/>
    </g>
  </g>
</svg>