<?xml version="1.0" encoding="UTF-8"?>
<svg id="Layer_1" xmlns="http://www.w3.org/2000/svg" version="1.1" viewBox="0 0 340.1 55.7">
  <!-- Generator: Adobe Illustrator 30.1.0, SVG Export Plug-In . SVG Version: 2.1.1 Build 136)  -->
  <defs>
    <style>
      .st0 {
        fill: #38424f;
      }
    </style>
  </defs>
  <path class="st0" d="M131.5,8.4h6.8v2h-8.9V0h2.1v8.4h0ZM152,8.9c.4-.5.6-1.2.6-1.9V0h-2.1v7.2c0,.5-.3.8-.8,1.1s-1.3.4-2.3.4-1.8,0-2.3-.4c-.5-.2-.8-.6-.8-1.1V0h-2.1v7c0,.7.2,1.4.6,1.9.4.5,1,1,1.8,1.2.8.3,1.7.4,2.8.4s1.9,0,2.7-.4,1.4-.7,1.8-1.2h.1ZM158.8,10.4l3.3-3.8,3.4,3.8h2.7l-4.7-5.3,4.4-5.1h-2.7l-3.1,3.5-3.1-3.5h-2.7l4.4,5-4.7,5.4h2.8ZM174,10.2c.8.3,1.7.4,2.8.4s1.9,0,2.7-.4,1.4-.7,1.8-1.2.6-1.2.6-1.9V.1h-2.1v7.2c0,.5-.3.8-.8,1.1s-1.3.4-2.3.4-1.8,0-2.3-.4c-.5-.2-.8-.6-.8-1.1V.1h-2.1v7c0,.7.2,1.4.6,1.9.4.5,1,1,1.8,1.2h.1ZM188.5,10.4h-2.1V0h6.1c.7,0,1.3,0,1.8.4s.9.6,1.2,1,.4,1,.4,1.6-.2,1.4-.7,1.9c-.4.5-1.1.8-1.8,1l3.3,4.4h-2.5l-3.2-4.4h-2.4v4.4h-.1ZM188.5,4h3.9c.5,0,.8,0,1.1-.3s.4-.4.4-.8-.1-.6-.4-.7c-.2-.2-.6-.2-1.1-.2h-3.9v2h0ZM203.7,10.4h2.1v-3.9L210.6,0h-2.5l-3.2,4.4-3.2-4.4h-2.5l4.8,6.4v3.9h-.3Z"/>
  <g>
    <g>
      <path class="st0" d="M99.7,43.8c0-.3,0-.7.2-1,.1-.4.3-.7.6-1,.2-.3.5-.5.9-.7.3-.2.7-.3,1.1-.3h7v-1.7h-7c-.4,0-.8,0-1.1-.3-.3-.2-.6-.4-.9-.7-.2-.3-.4-.6-.6-1-.1-.3-.2-.7-.2-.9v-9.2h13.1v-1.7h-17v8.5c0,1.8.6,3.2,1.7,4.4.7.7,1.5,1.3,2.4,1.8-.9.5-1.7,1.1-2.4,1.9-1.1,1.2-1.6,2.7-1.6,4.5v8.8h17.2v-1.7h-13.3v-9.6h0Z"/>
      <polygon class="st0" points="115.2 27.1 124.2 27.1 124.2 55.1 128.1 55.1 128.1 27.1 137.1 27.1 137.1 25.3 115.2 25.3 115.2 27.1"/>
      <rect class="st0" x="142.4" y="25.3" width="3.9" height="29.8"/>
      <polygon class="st0" points="85.6 39 72.4 39 72.4 25.3 68.4 25.3 68.4 55.1 72.4 55.1 72.4 40.7 85.6 40.7 85.6 55.1 89.6 55.1 89.6 25.3 85.6 25.3 85.6 39"/>
      <path class="st0" d="M3.9,43.8c0-.3,0-.7.2-1,0-.4.3-.7.6-1,.2-.3.5-.5.9-.7.3-.2.7-.3,1.1-.3h7v-1.7h-7c-.4,0-.8,0-1.1-.3-.3-.2-.6-.4-.9-.7-.2-.3-.4-.6-.6-1,0-.3-.2-.7-.2-.9v-9.2h13.1v-1.7H0v8.5c0,1.8.6,3.2,1.7,4.4.7.7,1.5,1.3,2.4,1.8-.9.5-1.7,1.1-2.4,1.9-1.1,1.2-1.7,2.7-1.7,4.5v8.8h17.2v-1.7H3.9v-9.6h0Z"/>
      <path class="st0" d="M36.3,40.1c-1.2-.8-2.6-1.6-4.1-2.2-1.4-.6-2.7-1.3-3.9-2-1.1-.7-2.1-1.4-2.9-2.2-.7-.8-1.1-1.7-1.1-2.8s.5-2.6,1.5-3.4c1.1-.8,2.4-1.2,3.9-1.2s3.2.5,4.8,1.4c1.6.9,3,2.3,4,4.3l1,2,.4-7.7h-.5c-2-.7-3.7-1.1-5.1-1.3-1.4-.3-2.7-.4-4-.4s-2.3.2-3.4.5-2.1.8-2.9,1.5c-.9.7-1.6,1.5-2.1,2.5s-.8,2.2-.8,3.4.5,3.2,1.4,4.4c.8,1.1,1.9,2.1,3.2,2.9,1.2.8,2.6,1.5,4,2.2,1.4.6,2.7,1.2,3.9,1.9,1.2.7,2.1,1.4,2.9,2.2.7.7,1.1,1.6,1.1,2.7s-.2,1.4-.4,2c-.3.6-.7,1.1-1.3,1.5-.5.4-1.2.7-1.9.9-.8.2-1.6.3-2.4.3-1.8,0-3.6-.5-5.4-1.4s-3.3-2.5-4.5-4.5l-1.1-2v8.1h.5c1.6.4,3.1.7,4.6,1.1,1.6.4,3.3.6,5.1.6s2.3-.2,3.4-.5c1.2-.3,2.2-.8,3.2-1.4s1.8-1.4,2.4-2.4.9-2.2.9-3.5-.4-3.3-1.3-4.5c-.8-1.2-1.9-2.2-3.2-3h.1Z"/>
      <polygon class="st0" points="43.4 27.1 52.4 27.1 52.4 55.1 56.3 55.1 56.3 27.1 65.3 27.1 65.3 25.3 43.4 25.3 43.4 27.1"/>
      <path class="st0" d="M175.3,48.9c-1.2,1.2-2.7,2.3-4.2,3.2-1.3.7-3.3,1.4-5.1,1.4s-.3,0-.5,0c-1.4,0-2.8-.5-3.9-1.1-.3-.2-.6-.4-.9-.6-1-.8-1.9-1.8-2.7-3.1-.9-1.3-1.6-2.8-2-4.4s-.7-3.2-.7-4.6.2-3.1.7-4.6c.4-1.5,1.1-2.9,2-4.1s1.9-2.2,3.1-2.9c.3-.2.6-.3.9-.4.6-.2,1.2-.4,1.9-.5h1.1c2,0,3.8.6,5.3,1.7,1.6,1.1,2.9,2.6,4.1,4.2l.2.3h1.3v-5l-.3-.2c-1.4-.8-2.9-1.5-4.4-2-1.6-.5-3.2-.7-4.9-.7h-.4c-2.1,0-4,.4-5.8,1.2-1.8.8-3.4,1.9-4.8,3.2s-2.4,3-3.2,4.8-1.2,3.8-1.2,5.8.4,4.1,1.1,5.9c.7,1.8,1.7,3.4,3,4.8s2.9,2.5,4.6,3.3c1.9.8,3.6,1.2,5.7,1.2h.1c2,0,3.9-.4,5.7-1.2,2.2-.9,4.1-2.3,5.7-4.2l.4-.5-1.4-1.1-.4.4h0v-.2Z"/>
    </g>
    <g>
      <polygon class="st0" points="285.2 46.2 268.1 25.3 261.5 25.3 261.5 55.1 267.5 55.1 267.5 33.8 284.9 55.1 291.2 55.1 291.2 25.3 285.2 25.3 285.2 46.2"/>
      <rect class="st0" x="296.4" y="25.3" width="6" height="29.8"/>
      <path class="st0" d="M193,33.1c2-1.7,4.9-2.5,8.7-2.5s4.6.4,6.2,1.1c1.6.7,2.9,1.8,3.6,3.2l5.8-2c-1.3-2.6-3.4-4.6-6.1-6.1-2.7-1.4-5.9-2.2-9.5-2.2s-6.7.6-9.4,1.9-4.7,3.1-6.2,5.4c-1.4,2.3-2.2,5.1-2.2,8.2s.7,5.9,2.2,8.2c1.4,2.3,3.5,4.1,6.2,5.4s5.8,1.9,9.4,1.9,6.3-.6,9-1.9c2.6-1.3,4.7-3,6.1-5.3l-6.3-1.8c-.8.9-1.9,1.7-3.4,2.2-1.5.6-3.3.8-5.4.8-3.8,0-6.7-.8-8.7-2.5s-3.1-4-3.1-7.1,1-5.4,3.1-7.1h0v.2Z"/>
      <path class="st0" d="M329.9,48.9c-1.5.6-3.3.8-5.4.8-3.8,0-6.7-.8-8.7-2.5s-3-4-3-7.1,1-5.4,3-7.1,4.9-2.5,8.7-2.5,4.5.4,6.2,1.1c1.6.7,2.9,1.8,3.6,3.2l5.8-2c-1.3-2.6-3.4-4.6-6.1-6.1-2.7-1.4-5.9-2.2-9.5-2.2s-6.7.6-9.4,1.9c-2.7,1.2-4.7,3.1-6.2,5.4-1.4,2.3-2.2,5.1-2.2,8.2s.7,5.9,2.2,8.2c1.4,2.3,3.5,4.1,6.2,5.4s5.8,1.9,9.4,1.9,6.3-.6,9-1.9c2.6-1.3,4.7-3,6.1-5.3l-6.3-1.8c-.8.9-1.9,1.7-3.4,2.2h0v.2Z"/>
      <rect class="st0" x="250.4" y="25.3" width="6" height="29.8"/>
      <polygon class="st0" points="227.6 25.3 221.6 25.3 221.6 55.1 247.2 55.1 247.2 49.3 227.6 49.3 227.6 25.3"/>
    </g>
  </g>
</svg>